<?xml version="1.0" encoding="UTF-8"?>
<svg width="46px" height="45px" viewBox="0 0 46 45" version="1.1" xmlns="http://www.w3.org/2000/svg" xmlns:xlink="http://www.w3.org/1999/xlink">
    <!-- Generator: Sketch 51.1 (57501) - http://www.bohemiancoding.com/sketch -->
    <title>Arrows</title>
    <desc>Created with Sketch.</desc>
    <defs></defs>
    <g id="Page-1" stroke="none" stroke-width="1" fill="none" fill-rule="evenodd">
        <g id="Email" transform="translate(-478.000000, -1432.000000)" fill="#000000">
            <g id="Footer" transform="translate(0.000000, 1387.000000)">
                <g id="Footer-Icons" transform="translate(200.000000, 45.000000)">
                    <g id="Icons" transform="translate(100.000000, 0.000000)">
                        <g id="Swap" transform="translate(150.000000, 0.000000)">
                            <path d="M50.7,42.5892857 C41.4878571,42.5892857 33.7092857,36.354375 31.3491964,27.8847321 L48.3865179,10.8482143 L46.3775893,8.83928571 L56.325,8.83928571 L56.325,19.5902679 L53.5125,16.7777679 L46.2803571,24.0099107 L43.9982143,21.7277679 C43.6382143,21.3677679 43.1022321,21.2616964 42.63375,21.4561607 L41.8607143,21.808125 L41.8607143,38.1696429 L57.4170536,38.1696429 C57.9273214,38.1696429 58.3821429,37.8650893 58.5758036,37.3925893 L58.8699107,36.5994643 L56.0204464,33.75 L70.5225,19.2479464 C70.6952679,20.3070536 70.7892857,21.3926786 70.7892857,22.5 C70.7892857,33.5772321 61.7772321,42.5892857 50.7,42.5892857 M50.7,2.41071429 C59.6855357,2.41071429 67.3098214,8.33946429 69.87,16.4908929 L52.6116964,33.75 L54.620625,35.7589286 L44.2714286,35.7589286 L44.2714286,25.4097321 L46.2803571,27.4186607 L53.5125,20.1865179 L56.6038393,23.2778571 C56.9638393,23.6338393 57.4998214,23.7375 57.9666964,23.5422321 L58.7357143,23.1886607 L58.7357143,6.42857143 L43.5811607,6.42857143 C43.0725,6.42857143 42.6184821,6.73151786 42.4240179,7.20160714 L42.1258929,7.99714286 L44.9769643,10.8482143 L30.7778571,25.0473214 C30.6717857,24.2124107 30.6107143,23.3630357 30.6107143,22.5 C30.6107143,11.4227679 39.6227679,2.41071429 50.7,2.41071429 M50.7,0 C38.2936607,0 28.2,10.0936607 28.2,22.5 C28.2,34.9063393 38.2936607,45 50.7,45 C63.1063393,45 73.2,34.9063393 73.2,22.5 C73.2,10.0936607 63.1063393,0 50.7,0" id="Arrows"></path>
                        </g>
                    </g>
                </g>
            </g>
        </g>
    </g>
</svg>