<svg xmlns="http://www.w3.org/2000/svg" viewBox="0 0 203.78 324.07"><defs><style>.cls-1{fill:#24c9db;}</style></defs><title>Asset 1</title><g id="Layer_2" data-name="Layer 2"><g id="Subscription_-_expanded" data-name="Subscription - expanded"><path d="M84.66,268.1l-1,1-5,4.94a44.7,44.7,0,0,1-4.19,3.72l8.17,8.17,1.78,1.78c1.41-1.16,2.79-2.42,4.13-3.76l6-5.95ZM169.65,0h-92a7,7,0,0,0-7,7V153.1L14.21,209.54C3.57,220.18-1.25,233.46.28,247.93c1.33,12.57,7.4,24.83,17.09,34.52a58.66,58.66,0,0,0,17.08,12,50,50,0,0,0,16.28,4.34c1.31.12,2.62.17,3.92.17h1.06a47.43,47.43,0,0,1-11.18-15.6,42.92,42.92,0,0,1-17.19-10.7l-.07-.07c-16-16-16-34.83-7.6-47.64a33.9,33.9,0,0,1,4.43-5.46l4.95-5L82.6,160.94A7,7,0,0,0,84.65,156V14h78V39.12h14V7A7,7,0,0,0,169.65,0Zm-7,74V88h14V74Zm-4,113.53a5.16,5.16,0,0,0-.79.05,64.48,64.48,0,0,1-6.21,11.72v21.6l1.63-1.63a80.21,80.21,0,0,0,12.37-15.93v-1.81h1a77.64,77.64,0,0,0,6.09-14Z"/><path d="M88.6,284A7,7,0,0,1,83.65,286a6.2,6.2,0,0,1-1-.07l-8.17-8.17L46.72,250c-.28.4-.54.8-.79,1.21L19.67,224.91l-5.46-5.46a7,7,0,0,1,9.89-9.91l21.18,21.18,2,2,7.92,7.92L88.6,274A7,7,0,0,1,88.6,284Z"/><path d="M111.78,48.88v14H77.65a7,7,0,0,1,0-14Z"/><path d="M104.78,25.12a7,7,0,0,0-7,7v146.1L41.33,234.67a7,7,0,0,0,0,9.9L46.72,250a38.14,38.14,0,0,1,4.51-5.39l58.5-58.5a7,7,0,0,0,2-4.95v-142h50.87v-14Zm0,0a7,7,0,0,0-7,7v146.1L41.33,234.67a7,7,0,0,0,0,9.9L46.72,250a38.14,38.14,0,0,1,4.51-5.39l58.5-58.5a7,7,0,0,0,2-4.95v-142h50.87v-14Zm0,0a7,7,0,0,0-7,7v146.1L41.33,234.67a7,7,0,0,0,0,9.9L46.72,250a38.14,38.14,0,0,1,4.51-5.39l58.5-58.5a7,7,0,0,0,2-4.95v-142h50.87v-14Zm0,48.88a7,7,0,0,0-7,7v97.22L41.33,234.67a7,7,0,0,0,0,9.9L46.72,250a38.14,38.14,0,0,1,4.51-5.39l58.5-58.5a7,7,0,0,0,2-4.95V74Zm92-48.88h-92a7,7,0,0,0-7,7v146.1L41.33,234.67a51.8,51.8,0,0,0-5.48,6.42,45.19,45.19,0,0,0-8.51,31.53A53,53,0,0,0,28.88,281a56.92,56.92,0,0,0,5.57,13.46c7.68,13.53,20.63,24.12,35.17,28a46.61,46.61,0,0,0,12.15,1.64,44.1,44.1,0,0,0,17.9-3.8,53,53,0,0,0,16.06-11.2L163.6,261.2l16.8-16.8a79.21,79.21,0,0,0,23-49.12.81.81,0,0,0,0-.16c.21-2.37.33-4.75.33-7.16V32.12A7,7,0,0,0,196.78,25.12ZM170.5,234.5l-4.85,4.85-59.82,59.82a42.4,42.4,0,0,1-5.34,4.56,31.22,31.22,0,0,1-27.25,5.18,42.23,42.23,0,0,1-17.53-10,47.43,47.43,0,0,1-11.18-15.6,39,39,0,0,1-2.12-6c-1.87-7-2.45-16.65,3.52-26.17.25-.41.51-.81.79-1.21a38.14,38.14,0,0,1,4.51-5.39l58.5-58.5a7,7,0,0,0,2-4.95v-142h78V188A65.59,65.59,0,0,1,170.5,234.5ZM104.78,25.12a7,7,0,0,0-7,7v146.1L41.33,234.67a7,7,0,0,0,0,9.9L46.72,250a38.14,38.14,0,0,1,4.51-5.39l58.5-58.5a7,7,0,0,0,2-4.95v-142h50.87v-14Zm0,0a7,7,0,0,0-7,7v146.1L41.33,234.67a7,7,0,0,0,0,9.9L46.72,250a38.14,38.14,0,0,1,4.51-5.39l58.5-58.5a7,7,0,0,0,2-4.95v-142h50.87v-14Zm0,0a7,7,0,0,0-7,7v146.1L41.33,234.67a7,7,0,0,0,0,9.9L46.72,250a38.14,38.14,0,0,1,4.51-5.39l58.5-58.5a7,7,0,0,0,2-4.95v-142h50.87v-14Zm0,48.88a7,7,0,0,0-7,7v97.22L41.33,234.67a7,7,0,0,0,0,9.9L46.72,250a38.14,38.14,0,0,1,4.51-5.39l58.5-58.5a7,7,0,0,0,2-4.95V74Z"/><path class="cls-1" d="M162.65,14V25.12H104.78a7,7,0,0,0-7,7V48.88H84.65V14Z"/><rect class="cls-1" x="111.78" y="39.12" width="78" height="34.88"/><path class="cls-1" d="M188.38,201.53a65.32,65.32,0,0,1-17.88,33l-4.85,4.85V201.53Z"/><path class="cls-1" d="M27.34,272.62l-.07-.07c-16-16-16-34.83-7.6-47.64l16.18,16.18A45.19,45.19,0,0,0,27.34,272.62Z"/><path class="cls-1" d="M100.49,303.73a31.22,31.22,0,0,1-27.25,5.18,42.23,42.23,0,0,1-17.53-10,47.43,47.43,0,0,1-11.18-15.6,39,39,0,0,1-2.12-6c-1.87-7-2.45-16.65,3.52-26.17.25-.41.51-.81.79-1.21l27.8,27.8,8.17,8.17Z"/><path d="M203.48,194.53a5.68,5.68,0,0,1,0,.59.81.81,0,0,1,0,.16,7,7,0,0,1-7,6.25H165.65v54.72a7,7,0,0,1-14,0V194.53a7,7,0,0,1,6.21-6.95,5.16,5.16,0,0,1,.79-.05h37.83A7,7,0,0,1,203.48,194.53Z"/><path d="M115.73,309.07a7,7,0,0,1-9.9,0l-5.34-5.34-17.8-17.8-8.17-8.17L46.72,250l-5.39-5.39a7,7,0,0,1,5.93-11.87,6.83,6.83,0,0,1,4,2l64.5,64.5A7,7,0,0,1,115.73,309.07Z"/><path d="M203.78,81a7,7,0,0,1-7,7h-92a7,7,0,0,1,0-14h92A7,7,0,0,1,203.78,81Z"/></g></g></svg>