<?xml version="1.0" encoding="utf-8"?>
<!-- Generator: Adobe Illustrator 22.1.0, SVG Export Plug-In . SVG Version: 6.00 Build 0)  -->
<svg version="1.1" id="Layer_1" xmlns="http://www.w3.org/2000/svg" xmlns:xlink="http://www.w3.org/1999/xlink" x="0px" y="0px"
	 viewBox="0 0 255.5 324.8" style="enable-background:new 0 0 255.5 324.8;" xml:space="preserve">
<style type="text/css">
	.st0{fill:#24C9DB;}
</style>
<title>Asset 2</title>
<g id="Layer_2_1_">
	<g id="Customize_-_expanded">
		<path d="M89.7,324.8c-1.6,0-3.1-0.5-4.3-1.5L50.9,296c-10.1-8-16.6-19.8-17.9-32.7l-8.3-84.6c-0.4-3.8,2.4-7.3,6.3-7.7
			c0.2,0,0.5,0,0.7,0c9.6,0,18.9,3.6,26,10.1c6.6,6,11.2,13.8,13.3,22.5c3.2,13.1,7.8,23.6,12.2,29.1l7.3-151.8c0.2-4,1-8,2.6-11.7
			c3.6-8.8,10.6-13.6,19.5-13.6s15.8,4.9,19.3,13.7c1.4,3.7,2.2,7.5,2.3,11.4l8.8,89.2l74.4,28.4c6.9,2.7,11.5,9.4,11.6,16.8v102.8
			c0,3.9-3.1,7-7,7s-7-3.1-7-7V215.1c0-1.7-1-3.2-2.6-3.7L134,181.4c-2.5-0.9-4.2-3.2-4.5-5.9l-9.2-93.8c0-0.2,0-0.5,0-0.7
			c0-1.2-0.3-11.6-7.6-11.6c-7.7,0-8,11.2-8,11.7v0.2l-7.9,162.8c-0.2,3.7-3.3,6.7-7,6.7c-9.8,0-23.3-7.6-32.3-43.9
			c-1.4-5.9-4.6-11.3-9.1-15.4c-2.5-2.3-5.5-4.1-8.8-5.2l7.4,75.7c0.9,9.1,5.5,17.4,12.6,23.1L94,312.3c3,2.4,3.5,6.8,1.1,9.8
			C93.8,323.9,91.8,324.8,89.7,324.8L89.7,324.8z"/>
		<path class="st0" d="M69,149.5H7c-3.9,0-7-3.1-7-7s3.1-7,7-7h62c3.9,0,7,3.1,7,7S72.9,149.5,69,149.5z"/>
		<path class="st0" d="M248.5,149.5H157c-3.9,0-7-3.1-7-7s3.1-7,7-7h91.5c3.9,0,7,3.1,7,7S252.4,149.5,248.5,149.5z"/>
		<path class="st0" d="M69,86.5H7c-3.9,0-7-3.1-7-7s3.1-7,7-7h62c3.9,0,7,3.1,7,7S72.9,86.5,69,86.5z"/>
		<path class="st0" d="M248.5,86.5H157c-3.9,0-7-3.1-7-7s3.1-7,7-7h91.5c3.9,0,7,3.1,7,7S252.4,86.5,248.5,86.5z"/>
		<path class="st0" d="M248.5,23.5H7c-3.9,0-7-3.1-7-7s3.1-7,7-7h241.5c3.9,0,7,3.1,7,7S252.4,23.5,248.5,23.5z"/>
		<circle class="st0" cx="216" cy="16.5" r="16.5"/>
		<circle class="st0" cx="38" cy="142.5" r="16.5"/>
	</g>
</g>
</svg>
