<svg xmlns="http://www.w3.org/2000/svg" width="90" height="100" viewBox="0 0 255.5 324.83"><defs><style>.cls-1{fill:#fff;}.cls-2{fill:#24c9db;}</style></defs><title>Asset 2</title><g id="Layer_2" data-name="Layer 2"><g id="Customize_-_expanded" data-name="Customize - expanded"><path class="cls-1" d="M89.67,317.83,55.2,290.54A40.69,40.69,0,0,1,40,262.62L31.66,178A31.3,31.3,0,0,1,53,186.26a37.5,37.5,0,0,1,11.23,19c2.87,11.63,11.11,38.63,25.49,38.63l7.9-162.8s.4-18.58,15-18.58,14.62,18.58,14.62,18.58l9.26,93.83L215,204.78A11,11,0,0,1,222,215.07V317.83"/><path d="M89.67,324.83a7,7,0,0,1-4.34-1.51L50.86,296A48,48,0,0,1,33,263.31l-8.31-84.65a7,7,0,0,1,7-7.69,38.51,38.51,0,0,1,26,10.07A44.25,44.25,0,0,1,71,203.54c3.25,13.12,7.76,23.59,12.24,29.08L90.58,80.78a35.6,35.6,0,0,1,2.55-11.7c3.64-8.77,10.55-13.61,19.46-13.61s15.82,4.88,19.31,13.73a35.83,35.83,0,0,1,2.31,11.44l8.8,89.24,74.43,28.36A18.12,18.12,0,0,1,229,215.07V317.83a7,7,0,0,1-14,0V215.07a4,4,0,0,0-2.58-3.74L134,181.42a7,7,0,0,1-4.48-5.85l-9.25-93.84a5.07,5.07,0,0,1,0-.68c0-1.16-.33-11.58-7.62-11.58-7.68,0-8,11.25-8,11.73v.19l-7.91,162.8a7,7,0,0,1-7,6.66c-9.76,0-23.29-7.62-32.29-43.94a30.29,30.29,0,0,0-9.09-15.43,25.49,25.49,0,0,0-8.79-5.23l7.44,75.69a33.8,33.8,0,0,0,12.61,23.11L94,312.34a7,7,0,0,1-4.35,12.49Z"/><path class="cls-2" d="M69,149.47H7a7,7,0,0,1,0-14H69a7,7,0,0,1,0,14Z"/><path class="cls-2" d="M248.5,149.47H157a7,7,0,0,1,0-14h91.5a7,7,0,0,1,0,14Z"/><path class="cls-2" d="M69,86.47H7a7,7,0,0,1,0-14H69a7,7,0,0,1,0,14Z"/><path class="cls-2" d="M248.5,86.47H157a7,7,0,0,1,0-14h91.5a7,7,0,0,1,0,14Z"/><path class="cls-2" d="M248.5,23.47H7a7,7,0,0,1,0-14H248.5a7,7,0,0,1,0,14Z"/><circle class="cls-2" cx="216" cy="16.47" r="16.47"/><circle class="cls-2" cx="38" cy="142.47" r="16.47"/></g></g></svg>