<svg xmlns="http://www.w3.org/2000/svg" width="auto" height="auto" viewBox="0 0 420.41 325"><defs><style>.cls-1{fill:#fff;}.cls-2{fill:#24c9db;}</style></defs><title>Asset 3</title><g id="Layer_2" data-name="Layer 2"><g id="Delivered_-_expanded" data-name="Delivered - expanded"><path d="M302.37,302.57h0a282.88,282.88,0,0,1-184.33,0h0L104.2,7h212Z"/><path d="M210.2,325a290.17,290.17,0,0,1-94.44-15.81,7,7,0,0,1-4.71-6.29L97.21,7.33a7,7,0,0,1,7-7.33h212a7,7,0,0,1,7,7.33L309.36,302.9a7,7,0,0,1-4.71,6.29A290.19,290.19,0,0,1,210.2,325Zm-85.39-27.55a273.94,273.94,0,0,0,170.79,0L308.87,14H111.54Zm177.56,5.12h0Z"/><path class="cls-1" d="M184,138.42a5,5,0,0,1-3.54-8.53l26.17-26.17a5,5,0,0,1,7.07,0l16,16a5,5,0,0,1-7.07,7.07L210.2,114.33,187.57,137A5,5,0,0,1,184,138.42Z"/><path class="cls-1" d="M183.42,194.22a5,5,0,0,1-3.53-1.46l-27.6-27.59a5,5,0,0,1,0-7.07l17.2-17.2a5,5,0,0,1,7.07,7.07L162.9,161.63l20.52,20.52,50.74-50.93a5,5,0,0,1,3.53-1.47h0a5,5,0,0,1,3.53,1.47l26.88,26.88a5,5,0,0,1,0,7.07l-17.19,17.19a5,5,0,0,1-7.07-7.07l13.66-13.66-19.8-19.8L187,192.75a5,5,0,0,1-3.53,1.47Z"/><path class="cls-1" d="M210.2,221a4.94,4.94,0,0,1-3.53-1.46l-15.42-15.42a5,5,0,0,1,7.07-7.07l11.88,11.88,22.63-22.63a5,5,0,1,1,7.08,7.07l-26.17,26.17A5,5,0,0,1,210.2,221Z"/><path class="cls-1" d="M223.64,207.57a5,5,0,0,1-3.53-1.47l-9-9a5,5,0,0,1,7.07-7.07l9,9a5,5,0,0,1-3.54,8.54Z"/><path class="cls-1" d="M205.77,134.7a5,5,0,0,1-3.54-1.47l-9-9a5,5,0,1,1,7.07-7.07l9,9a5,5,0,0,1-3.53,8.54Z"/><path class="cls-2" d="M83.2,138a7,7,0,0,1-5-2.05l-27-27A7,7,0,0,1,56.19,97H67.3L51.24,80.89a7,7,0,1,1,9.9-9.9l28,28a7,7,0,0,1-5,11.95H73.09L88.15,126a7,7,0,0,1-5,12Z"/><path class="cls-2" d="M65,181.78H26.81a7,7,0,0,1-4.95-11.95L29.71,162H7a7,7,0,0,1,0-14H46.61a7,7,0,0,1,5,11.95l-7.85,7.86H65a7,7,0,0,1,0,14Z"/><path class="cls-2" d="M57.19,247.3a7,7,0,0,1-7-7V229.19L34.13,245.25a7,7,0,1,1-9.9-9.9l28-28a7,7,0,0,1,11.95,4.95v11.12l15-15.06a7,7,0,0,1,9.9,9.9l-27,27A7,7,0,0,1,57.19,247.3Z"/><path class="cls-2" d="M337.21,138a7,7,0,0,1-4.95-12L347.32,111H336.2A7,7,0,0,1,331.25,99l28-28a7,7,0,1,1,9.91,9.9L353.1,97h11.11a7,7,0,0,1,5,11.94l-27,27A7,7,0,0,1,337.21,138Z"/><path class="cls-2" d="M393.6,181.78H355.41a7,7,0,0,1,0-14H376.7l-7.86-7.86a7,7,0,0,1,5-11.95h39.62a7,7,0,0,1,0,14H390.69l7.86,7.86a7,7,0,0,1-4.95,11.95Z"/><path class="cls-2" d="M363.22,247.3a7,7,0,0,1-5-2.05l-27-27a7,7,0,1,1,9.89-9.9l15.06,15.06V212.29a7,7,0,0,1,11.95-4.95l28,28a7,7,0,1,1-9.9,9.9l-16.06-16.06V240.3a7,7,0,0,1-7,7Z"/></g></g></svg>