<?xml version="1.0" encoding="UTF-8"?>
<svg width="45px" height="45px" viewBox="0 0 45 45" version="1.1" xmlns="http://www.w3.org/2000/svg" xmlns:xlink="http://www.w3.org/1999/xlink">
    <!-- Generator: Sketch 51.1 (57501) - http://www.bohemiancoding.com/sketch -->
    <title>Plane</title>
    <desc>Created with Sketch.</desc>
    <defs></defs>
    <g id="Page-1" stroke="none" stroke-width="1" fill="none" fill-rule="evenodd">
        <g id="Email" transform="translate(-328.000000, -1432.000000)" fill="#000000">
            <g id="Footer" transform="translate(0.000000, 1387.000000)">
                <g id="Footer-Icons" transform="translate(200.000000, 45.000000)">
                    <g id="Icons" transform="translate(100.000000, 0.000000)">
                        <g id="Shipping">
                            <path d="M32.3992562,28.968497 L41.2896306,31.7103488 L44.0314781,40.600737 L45.1750823,39.4532385 C45.3058689,39.3216732 45.3704837,39.1402844 45.3517999,38.9565601 L44.596663,31.4347623 L57.0735484,19.8282126 L64.8460088,36.1127258 L65.3395725,35.6176043 C65.4835934,35.4720262 65.5466513,35.2657256 65.5077267,35.0648744 L61.6611995,15.1486921 L69.8820711,6.91535188 C70.3904262,6.40777455 70.6683477,5.73749222 70.6644552,5.02828524 C70.6644552,4.3042869 70.3849767,3.62933361 69.8774002,3.12175628 C69.3674882,2.61184347 68.6870865,2.34326344 67.9638678,2.33547851 C67.2531049,2.33547851 66.5890516,2.61262196 66.0853675,3.11630683 L57.8512615,11.3387482 L37.9351102,7.49221507 C37.7350378,7.45173344 37.5271806,7.51634835 37.3823811,7.66036952 L36.8872604,8.15393398 L53.1717483,15.9264065 L41.5644381,28.4033112 L34.044209,27.6481731 C33.858928,27.6279323 33.6783179,27.6941042 33.5467529,27.824891 L32.3992562,28.968497 Z M42.9439253,45 L39.4220292,33.5779531 L28,30.055273 L31.8979076,26.1705937 C32.5269288,25.5446855 33.3941685,25.2379593 34.2777565,25.324372 L40.644261,25.9635146 L49.29486,16.6644177 L32.8920414,8.83511522 L35.7350928,6.00529375 C36.4295074,5.3147706 37.4181917,5.01349388 38.3788504,5.19877517 L57.0774408,8.81098194 L64.4341867,1.46434503 C65.3784971,0.520033216 66.6295331,0 67.9576398,0 L67.984887,0 C69.3192217,0 70.5803781,0.522368694 71.5293594,1.47057297 C72.4775622,2.41955574 72.9999301,3.68071414 72.9999301,5.0212788 C73.0069365,6.35328005 72.4869041,7.61443845 71.5348089,8.56653519 L64.1889619,15.9217355 L67.801163,34.6211335 C67.986444,35.5825721 67.6851678,36.5704796 66.9946457,37.2641167 L64.1648286,40.107951 L56.3355383,23.7051069 L47.0364558,32.3557193 L47.6755974,38.7222338 C47.7643455,39.6058231 47.4560628,40.4730641 46.829377,41.1013079 L42.9439253,45 Z" id="Plane"></path>
                        </g>
                    </g>
                </g>
            </g>
        </g>
    </g>
</svg>