<?xml version="1.0" standalone="no"?>
<!DOCTYPE svg PUBLIC "-//W3C//DTD SVG 20010904//EN"
 "http://www.w3.org/TR/2001/REC-SVG-20010904/DTD/svg10.dtd">
<svg version="1.0" xmlns="http://www.w3.org/2000/svg"
 width="90.000000pt" height="83.000000pt" viewBox="0 0 90.000000 83.000000"
 preserveAspectRatio="xMidYMid meet">

<g transform="translate(0.000000,83.000000) scale(0.100000,-0.100000)"
fill="#000000" stroke="none">
<path d="M200 600 l0 -60 38 42 c20 22 51 49 67 60 l30 18 -67 0 -68 0 0 -60z"/>
<path d="M595 642 c17 -11 47 -38 68 -60 l37 -42 0 60 0 60 -67 0 -68 0 30
-18z"/>
<path d="M405 610 c-22 -5 -9 -8 45 -8 54 0 67 3 45 8 -16 4 -37 8 -45 8 -8 0
-28 -4 -45 -8z"/>
<path d="M292 540 c-25 -32 -46 -84 -40 -101 2 -6 26 14 54 44 43 46 49 57 39
71 -17 22 -26 20 -53 -14z"/>
<path d="M570 495 c0 -41 3 -75 7 -75 11 0 63 53 63 64 0 14 -51 86 -61 86 -5
0 -9 -34 -9 -75z"/>
<path d="M401 489 c-43 -47 -50 -59 -35 -59 11 0 24 -4 30 -9 5 -6 25 5 52 30
31 29 42 47 42 69 0 46 -27 36 -89 -31z"/>
<path d="M287 372 c-34 -35 -34 -41 3 -87 l30 -38 0 77 c0 42 -1 76 -3 76 -2
0 -15 -13 -30 -28z"/>
<path d="M455 370 c-16 -16 -35 -30 -42 -30 -8 0 -13 -13 -13 -35 0 -31 3 -35
25 -35 14 0 25 5 25 10 0 6 23 33 52 60 43 41 49 50 31 50 -12 0 -28 2 -35 5
-8 3 -27 -8 -43 -25z"/>
<path d="M594 338 c-47 -49 -50 -55 -38 -77 l12 -24 31 34 c30 33 56 90 49
109 -2 6 -26 -13 -54 -42z"/>
<path d="M200 220 l0 -60 68 0 67 0 -30 18 c-16 11 -47 38 -67 60 l-38 42 0
-60z"/>
<path d="M660 238 c-19 -23 -48 -49 -65 -60 l-30 -18 68 0 67 0 0 60 c0 33 -1
60 -2 59 -2 0 -19 -19 -38 -41z"/>
<path d="M413 209 c21 -5 53 -5 75 0 32 8 27 9 -38 9 -65 0 -70 -1 -37 -9z"/>
</g>
</svg>
