<?xml version="1.0" encoding="UTF-8"?>
<svg width="49px" height="45px" viewBox="0 0 49 45" version="1.1" xmlns="http://www.w3.org/2000/svg" xmlns:xlink="http://www.w3.org/1999/xlink">
    <!-- Generator: Sketch 51.1 (57501) - http://www.bohemiancoding.com/sketch -->
    <title>Smile</title>
    <desc>Created with Sketch.</desc>
    <defs></defs>
    <g id="Page-1" stroke="none" stroke-width="1" fill="none" fill-rule="evenodd">
        <g id="Email" transform="translate(-626.000000, -1432.000000)" fill="#000000">
            <g id="Footer" transform="translate(0.000000, 1387.000000)">
                <g id="Footer-Icons" transform="translate(200.000000, 45.000000)">
                    <g id="Icons" transform="translate(100.000000, 0.000000)">
                        <g id="Satisfaction" transform="translate(301.000000, 0.000000)">
                            <g id="Smile" transform="translate(25.000000, 0.000000)">
                                <path d="M26.9460865,0.865384615 C39.0528173,0.865384615 48.902625,10.7151923 48.902625,22.8219231 C48.902625,34.9286538 39.0528173,44.7784615 26.9460865,44.7784615 C23.6922404,44.7784615 20.5595481,44.0835577 17.6345481,42.7119231 C16.9855096,42.4073077 16.7059904,41.6345192 17.0106058,40.9854808 C17.3152212,40.3364423 18.0862788,40.0569231 18.7370481,40.3615385 C21.3141635,41.5696154 24.0764712,42.1823077 26.9460865,42.1823077 C37.6214712,42.1823077 46.3064712,33.4973077 46.3064712,22.8219231 C46.3064712,12.1465385 37.6214712,3.46153846 26.9460865,3.46153846 C21.4552212,3.46153846 16.2014712,5.80673077 12.5322404,9.89653846 C12.0545481,10.42875 11.2332981,10.4746154 10.6993558,9.99519231 C10.1654135,9.51663462 10.1212788,8.69538462 10.5998365,8.16230769 C14.7614712,3.52471154 20.7196442,0.865384615 26.9460865,0.865384615 Z M24.0389135,26.6000192 C24.0389135,29.7543462 26.6056442,32.3210769 29.7591058,32.3210769 C32.9134327,32.3210769 35.4801635,29.7543462 35.4801635,26.6000192 C35.4801635,25.8826154 36.0617019,25.3019423 36.7782404,25.3019423 C37.4947788,25.3019423 38.0763173,25.8826154 38.0763173,26.6000192 C38.0763173,31.1856923 34.3447788,34.9172308 29.7591058,34.9172308 C25.1742981,34.9172308 21.4427596,31.1856923 21.4427596,26.6000192 C21.4427596,25.8826154 22.0242981,25.3019423 22.7408365,25.3019423 C23.457375,25.3019423 24.0389135,25.8826154 24.0389135,26.6000192 Z M35.7089712,20.1032308 C34.2750288,20.1032308 33.1128173,18.9410192 33.1128173,17.5070769 C33.1128173,16.0731346 34.2750288,14.9109231 35.7089712,14.9109231 C37.1429135,14.9109231 38.305125,16.0731346 38.305125,17.5070769 C38.305125,18.9410192 37.1429135,20.1032308 35.7089712,20.1032308 Z M25.1240192,15.8548846 C25.9409423,16.1067115 26.4766154,16.7540192 26.4895962,17.5060385 C26.5025769,18.252 25.9963269,18.9105577 25.2010385,19.1840192 L22.0700769,20.2648846 C21.9298846,20.3124808 21.7870962,20.3358462 21.6460385,20.3358462 C21.1077692,20.3358462 20.6049808,19.9983462 20.4189231,19.4609423 C20.1852692,18.7833462 20.5452692,18.0443077 21.2228654,17.8106538 L21.8961346,17.5778654 L20.7244038,17.2178654 C20.0390192,17.0075769 19.6547885,16.2806538 19.8650769,15.5952692 C20.0753654,14.9098846 20.8066154,14.5256538 21.4868077,14.7368077 L25.1240192,15.8548846 Z" id="Combined-Shape"></path>
                                <path d="M12.1855673,38.2822788 L8.84604808,38.2822788 C5.39922115,38.2822788 2.59624038,35.4792981 2.59624038,32.0333365 L2.59624038,12.9040096 C2.59624038,12.3371827 3.056625,11.8759327 3.62345192,11.8759327 C4.19114423,11.8759327 4.65152885,12.3371827 4.65152885,12.9040096 L5.51777885,20.2753558 C5.56277885,22.5106442 7.39566346,24.3158365 9.64220192,24.3158365 L13.8929712,24.3158365 C15.060375,24.3158365 16.0443173,25.0747788 16.4060481,26.1210288 L11.5659519,26.1210288 C11.0873942,26.1210288 10.7005673,26.5087212 10.7005673,26.9864135 C10.7005673,27.4641058 11.0873942,27.8517981 11.5659519,27.8517981 L16.5626827,27.8517981 L16.5626827,30.1442019 L11.5659519,30.1442019 C11.0873942,30.1442019 10.7005673,30.5318942 10.7005673,31.0095865 C10.7005673,31.4872788 11.0873942,31.8749712 11.5659519,31.8749712 L16.5626827,31.8749712 L16.5626827,33.9051635 C16.5626827,33.9951635 16.5410481,34.0791058 16.5358558,34.167375 L11.5659519,34.167375 C11.0873942,34.167375 10.7005673,34.5550673 10.7005673,35.0327596 C10.7005673,35.5104519 11.0873942,35.8981442 11.5659519,35.8981442 L16.0598942,35.8981442 C15.3321058,37.3069904 13.8773942,38.2822788 12.1855673,38.2822788 M19.1588365,33.9051635 L19.1588365,26.9864135 C19.1588365,24.0821827 16.7963365,21.7196827 13.8929712,21.7196827 L9.64220192,21.7196827 C8.79931731,21.7196827 8.11306731,21.0342981 8.11306731,20.1914135 L7.24681731,12.8192019 C7.20095192,10.8599712 5.59393269,9.27977885 3.62345192,9.27977885 C1.62614423,9.27977885 8.65384616e-05,10.9058365 8.65384616e-05,12.9040096 L8.65384616e-05,32.0333365 C8.65384616e-05,36.9106442 3.967875,40.8784327 8.84604808,40.8784327 L12.1855673,40.8784327 C16.0304712,40.8784327 19.1588365,37.7500673 19.1588365,33.9051635" id="Fill-10"></path>
                            </g>
                        </g>
                    </g>
                </g>
            </g>
        </g>
    </g>
</svg>